# Blender v2.82 (sub 7) OBJ File: 'simple-hexagon.blend'
# www.blender.org
o Circle
v -0.008660 0.995000 0.010000
v 0.008660 0.995000 0.010000
v -0.000000 0.988453 0.000000
v 0.000000 0.997664 0.010000
v -0.000000 0.995779 0.003918
v 0.006328 0.992880 0.002693
v -0.006328 0.992880 0.002693
v -0.857365 0.505000 0.010000
v -0.856025 0.494226 0.000000
v -0.866025 0.490000 0.010000
v -0.856695 0.501920 0.002693
v -0.862370 0.497890 0.003918
v -0.863024 0.490960 0.002693
v -0.864003 0.498832 0.010000
v -0.866025 -0.490000 0.010000
v -0.856025 -0.494227 0.000000
v -0.857365 -0.505000 0.010000
v -0.863023 -0.490960 0.002693
v -0.862370 -0.497890 0.003918
v -0.856695 -0.501921 0.002693
v -0.864002 -0.498832 0.010000
v -0.008660 -0.995000 0.010000
v 0.000000 -0.988453 0.000000
v 0.008660 -0.995000 0.010000
v -0.006328 -0.992880 0.002693
v 0.000000 -0.995779 0.003918
v 0.006328 -0.992880 0.002693
v 0.000000 -0.997664 0.010000
v 0.857365 -0.505000 0.010000
v 0.856025 -0.494226 0.000000
v 0.866025 -0.490000 0.010000
v 0.856695 -0.501920 0.002693
v 0.862370 -0.497889 0.003918
v 0.863024 -0.490960 0.002693
v 0.864003 -0.498832 0.010000
v 0.866025 0.490000 0.010000
v 0.856025 0.494226 0.000000
v 0.857365 0.505000 0.010000
v 0.863024 0.490960 0.002693
v 0.862370 0.497890 0.003918
v 0.856695 0.501921 0.002693
v 0.864003 0.498832 0.010000
v -0.008660 0.995000 0.090000
v -0.000000 0.988453 0.100000
v 0.008660 0.995000 0.090000
v -0.006328 0.992880 0.097307
v -0.000000 0.995779 0.096082
v 0.006328 0.992880 0.097307
v -0.000000 0.997664 0.090000
v -0.857365 0.505000 0.090000
v -0.866025 0.490000 0.090000
v -0.856025 0.494226 0.100000
v -0.864003 0.498832 0.090000
v -0.862370 0.497890 0.096082
v -0.863024 0.490960 0.097307
v -0.856695 0.501920 0.097307
v -0.866025 -0.490000 0.090000
v -0.857365 -0.505000 0.090000
v -0.856025 -0.494227 0.100000
v -0.864003 -0.498832 0.090000
v -0.862370 -0.497890 0.096082
v -0.856695 -0.501921 0.097307
v -0.863024 -0.490960 0.097307
v -0.008660 -0.995000 0.090000
v 0.008660 -0.995000 0.090000
v 0.000000 -0.988453 0.100000
v 0.000000 -0.997664 0.090000
v 0.000000 -0.995779 0.096082
v 0.006328 -0.992880 0.097307
v -0.006328 -0.992880 0.097307
v 0.857365 -0.505000 0.090000
v 0.866025 -0.490000 0.090000
v 0.856025 -0.494226 0.100000
v 0.864003 -0.498832 0.090000
v 0.862370 -0.497890 0.096082
v 0.863024 -0.490960 0.097307
v 0.856695 -0.501921 0.097307
v 0.866025 0.490000 0.090000
v 0.857365 0.505000 0.090000
v 0.856025 0.494226 0.100000
v 0.864003 0.498832 0.090000
v 0.862370 0.497890 0.096082
v 0.856695 0.501921 0.097307
v 0.863024 0.490960 0.097307
vt 0.000000 0.000000
vt 0.000000 0.000000
vt 0.000000 0.000000
vt 0.000000 0.000000
vt 0.000000 0.000000
vt 0.000000 0.000000
vt 0.000000 0.000000
vt 0.000000 0.000000
vt 0.000000 0.000000
vt 0.000000 0.000000
vt 0.000000 0.000000
vt 0.000000 0.000000
vt 0.000000 0.000000
vt 0.000000 0.000000
vt 0.000000 0.000000
vt 0.000000 0.000000
vt 0.000000 0.000000
vt 0.000000 0.000000
vt 0.000000 0.000000
vt 0.000000 0.000000
vt 0.000000 0.000000
vt 0.000000 0.000000
vt 0.000000 0.000000
vt 0.000000 0.000000
vt 0.000000 0.000000
vt 0.000000 0.000000
vt 0.000000 0.000000
vt 0.000000 0.000000
vt 0.000000 0.000000
vt 0.000000 0.000000
vt 0.000000 0.000000
vt 0.000000 0.000000
vt 0.000000 0.000000
vt 0.000000 0.000000
vt 0.000000 0.000000
vt 0.000000 0.000000
vt 0.000000 0.000000
vt 0.000000 0.000000
vt 0.000000 0.000000
vt 0.000000 0.000000
vt 0.000000 0.000000
vt 0.000000 0.000000
vt 0.000000 0.000000
vt 0.000000 0.000000
vt 0.000000 0.000000
vt 0.000000 0.000000
vt 0.000000 0.000000
vt 0.000000 0.000000
vt 0.000000 0.000000
vt 0.000000 0.000000
vt 0.000000 0.000000
vt 0.000000 0.000000
vt 0.000000 0.000000
vt 0.000000 0.000000
vt 0.000000 0.000000
vt 0.000000 0.000000
vt 0.000000 0.000000
vt 0.000000 0.000000
vt 0.000000 0.000000
vt 0.000000 0.000000
vt 0.000000 0.000000
vt 0.000000 0.000000
vt 0.000000 0.000000
vt 0.000000 0.000000
vt 0.000000 0.000000
vt 0.000000 0.000000
vt 0.000000 0.000000
vt 0.000000 0.000000
vt 0.000000 0.000000
vt 0.000000 0.000000
vt 0.000000 0.000000
vt 0.000000 0.000000
vt 0.000000 0.000000
vt 0.000000 0.000000
vt 0.000000 0.000000
vt 0.000000 0.000000
vt 0.000000 0.000000
vt 0.000000 0.000000
vt 0.000000 0.000000
vt 0.000000 0.000000
vt 0.000000 0.000000
vt 0.000000 0.000000
vt 0.000000 0.000000
vt 0.000000 0.000000
vn 0.5000 0.8660 0.0000
vn 1.0000 0.0000 0.0000
vn -0.5000 -0.8660 0.0000
vn 0.0000 0.0000 1.0000
vn 0.5000 -0.8660 -0.0000
vn 0.0000 0.0000 -1.0000
vn -1.0000 0.0000 0.0000
vn -0.3305 0.8730 -0.3587
vn 0.2819 0.9164 -0.2840
vn 0.0453 0.4711 -0.8809
vn -0.6527 0.7024 -0.2840
vn -0.3853 0.2748 -0.8809
vn -0.9213 0.1503 -0.3587
vn -0.9346 -0.2141 -0.2840
vn -0.4306 -0.1963 -0.8809
vn -0.5908 -0.7227 -0.3587
vn -0.2819 -0.9164 -0.2841
vn -0.0453 -0.4711 -0.8809
vn 0.3305 -0.8730 -0.3587
vn 0.6527 -0.7024 -0.2840
vn 0.3854 -0.2747 -0.8809
vn 0.9213 -0.1503 -0.3587
vn 0.9346 0.2141 -0.2840
vn 0.4306 0.1963 -0.8809
vn 0.5908 0.7227 -0.3587
vn -0.2819 0.9164 0.2840
vn -0.0453 0.4711 0.8809
vn 0.3305 0.8730 0.3587
vn -0.5908 0.7227 0.3587
vn -0.9346 0.2140 0.2840
vn -0.4306 0.1963 0.8809
vn -0.9213 -0.1503 0.3587
vn -0.6527 -0.7024 0.2840
vn -0.3854 -0.2748 0.8809
vn -0.3305 -0.8730 0.3587
vn 0.2819 -0.9164 0.2840
vn 0.0453 -0.4711 0.8809
vn 0.5908 -0.7227 0.3587
vn 0.9346 -0.2140 0.2840
vn 0.4306 -0.1963 0.8809
vn 0.9213 0.1503 0.3587
vn 0.6527 0.7024 0.2840
vn 0.3854 0.2748 0.8809
vn -0.4625 0.8011 -0.3800
vn -0.1796 0.3110 -0.9333
vn -0.9250 -0.0000 -0.3800
vn -0.3591 0.0000 -0.9333
vn -0.4625 -0.8011 -0.3800
vn -0.1796 -0.3110 -0.9333
vn 0.4625 -0.8011 -0.3800
vn 0.1796 -0.3110 -0.9333
vn 0.9250 0.0000 -0.3800
vn 0.3591 0.0000 -0.9333
vn 0.4625 0.8011 -0.3800
vn 0.1796 0.3110 -0.9333
vn -0.1796 0.3110 0.9333
vn -0.4625 0.8011 0.3800
vn -0.3591 0.0000 0.9333
vn -0.9250 0.0000 0.3800
vn -0.1796 -0.3110 0.9333
vn -0.4625 -0.8011 0.3800
vn 0.1796 -0.3110 0.9333
vn 0.4625 -0.8011 0.3800
vn 0.3591 0.0000 0.9333
vn 0.9250 0.0000 0.3800
vn 0.1796 0.3110 0.9333
vn 0.4625 0.8011 0.3800
vn 0.9748 -0.2233 0.0000
vn 0.6807 -0.7325 0.0000
vn -0.2940 -0.9558 0.0000
vn 0.2940 -0.9558 0.0000
vn -0.6807 -0.7325 0.0000
vn -0.9748 -0.2233 -0.0000
vn -0.6807 0.7325 0.0000
vn -0.9748 0.2233 0.0000
vn 0.6807 0.7325 0.0000
vn 0.9748 0.2233 0.0000
vn 0.2940 0.9558 0.0000
vn -0.2940 0.9558 0.0000
vn -0.5000 0.8660 -0.0000
vn -0.2819 0.9164 -0.2841
vn 0.3305 0.8730 -0.3587
vn -0.0453 0.4711 -0.8809
vn -0.5908 0.7227 -0.3587
vn -0.4306 0.1963 -0.8809
vn -0.9346 0.2141 -0.2840
vn -0.9213 -0.1503 -0.3587
vn -0.3853 -0.2748 -0.8809
vn -0.6527 -0.7024 -0.2840
vn -0.3305 -0.8730 -0.3587
vn 0.0453 -0.4711 -0.8809
vn 0.2819 -0.9164 -0.2840
vn 0.5908 -0.7227 -0.3587
vn 0.4306 -0.1963 -0.8809
vn 0.9346 -0.2141 -0.2840
vn 0.9213 0.1503 -0.3587
vn 0.3854 0.2748 -0.8809
vn 0.6527 0.7024 -0.2840
vn -0.3305 0.8730 0.3587
vn 0.0453 0.4711 0.8809
vn 0.2819 0.9164 0.2840
vn -0.6527 0.7024 0.2840
vn -0.9213 0.1503 0.3587
vn -0.3854 0.2748 0.8809
vn -0.9346 -0.2140 0.2840
vn -0.5908 -0.7227 0.3587
vn -0.4306 -0.1963 0.8809
vn -0.2819 -0.9164 0.2841
vn 0.3305 -0.8730 0.3587
vn -0.0453 -0.4711 0.8809
vn 0.6527 -0.7024 0.2840
vn 0.9213 -0.1503 0.3587
vn 0.3854 -0.2748 0.8809
vn 0.9346 0.2140 0.2840
vn 0.5908 0.7227 0.3587
vn 0.4306 0.1963 0.8809
vn 0.9748 -0.2232 -0.0000
vn 0.9748 0.2232 0.0000
s off
f 2/1/1 79/2/1 38/3/1
f 36/4/2 72/5/2 31/6/2
f 22/7/3 58/8/3 17/9/3
f 59/10/4 73/11/4 44/12/4
f 29/13/5 65/14/5 24/15/5
f 23/16/6 16/17/6 3/18/6
f 15/19/7 51/20/7 10/21/7
f 1/22/8 5/23/8 7/24/8
f 2/1/9 5/23/9 4/25/9
f 3/18/10 5/23/10 6/26/10
f 8/27/11 12/28/11 14/29/11
f 9/30/12 12/28/12 11/31/12
f 10/21/13 12/28/13 13/32/13
f 15/19/14 19/33/14 21/34/14
f 16/17/15 19/33/15 18/35/15
f 17/9/16 19/33/16 20/36/16
f 22/7/17 26/37/17 28/38/17
f 23/16/18 26/37/18 25/39/18
f 24/15/19 26/37/19 27/40/19
f 29/13/20 33/41/20 35/42/20
f 30/43/21 33/41/21 32/44/21
f 31/6/22 33/41/22 34/45/22
f 36/4/23 40/46/23 42/47/23
f 37/48/24 40/46/24 39/49/24
f 38/3/25 40/46/25 41/50/25
f 43/51/26 47/52/26 49/53/26
f 44/12/27 47/52/27 46/54/27
f 45/55/28 47/52/28 48/56/28
f 50/57/29 54/58/29 56/59/29
f 51/20/30 54/58/30 53/60/30
f 52/61/31 54/58/31 55/62/31
f 57/63/32 61/64/32 63/65/32
f 58/8/33 61/64/33 60/66/33
f 59/10/34 61/64/34 62/67/34
f 64/68/35 68/69/35 70/70/35
f 65/14/36 68/69/36 67/71/36
f 66/72/37 68/69/37 69/73/37
f 71/74/38 75/75/38 77/76/38
f 72/5/39 75/75/39 74/77/39
f 73/11/40 75/75/40 76/78/40
f 78/79/41 82/80/41 84/81/41
f 79/2/42 82/80/42 81/82/42
f 80/83/43 82/80/43 83/84/43
f 1/22/44 11/31/44 8/27/44
f 7/24/45 9/30/45 11/31/45
f 10/21/46 18/35/46 15/19/46
f 13/32/47 16/17/47 18/35/47
f 22/7/48 20/36/48 25/39/48
f 20/36/49 23/16/49 25/39/49
f 24/15/50 32/44/50 29/13/50
f 27/40/51 30/43/51 32/44/51
f 31/6/52 39/49/52 36/4/52
f 34/45/53 37/48/53 39/49/53
f 38/3/54 6/26/54 2/1/54
f 41/50/55 3/18/55 6/26/55
f 44/12/56 56/59/56 52/61/56
f 56/59/57 43/51/57 50/57/57
f 52/61/58 63/65/58 59/10/58
f 63/65/59 51/20/59 57/63/59
f 59/10/60 70/70/60 66/72/60
f 62/67/61 64/68/61 70/70/61
f 66/72/62 77/76/62 73/11/62
f 69/73/63 71/74/63 77/76/63
f 73/11/64 84/81/64 80/83/64
f 76/78/65 78/79/65 84/81/65
f 80/83/66 48/56/66 44/12/66
f 83/84/67 45/55/67 48/56/67
f 72/5/68 35/42/68 31/6/68
f 74/77/69 29/13/69 35/42/69
f 22/7/70 67/71/70 64/68/70
f 28/38/71 65/14/71 67/71/71
f 58/8/72 21/34/72 17/9/72
f 60/66/73 15/19/73 21/34/73
f 8/27/74 53/60/74 50/57/74
f 14/29/75 51/20/75 53/60/75
f 79/2/76 42/47/76 38/3/76
f 81/82/77 36/4/77 42/47/77
f 2/1/78 49/53/78 45/55/78
f 4/25/79 43/51/79 49/53/79
f 8/27/80 43/51/80 1/22/80
f 2/1/1 45/55/1 79/2/1
f 36/4/2 78/79/2 72/5/2
f 22/7/3 64/68/3 58/8/3
f 44/12/4 52/61/4 59/10/4
f 59/10/4 66/72/4 73/11/4
f 73/11/4 80/83/4 44/12/4
f 29/13/5 71/74/5 65/14/5
f 16/17/6 9/30/6 3/18/6
f 3/18/6 37/48/6 30/43/6
f 30/43/6 23/16/6 3/18/6
f 15/19/7 57/63/7 51/20/7
f 1/22/81 4/25/81 5/23/81
f 2/1/82 6/26/82 5/23/82
f 3/18/83 7/24/83 5/23/83
f 8/27/84 11/31/84 12/28/84
f 9/30/85 13/32/85 12/28/85
f 10/21/86 14/29/86 12/28/86
f 15/19/87 18/35/87 19/33/87
f 16/17/88 20/36/88 19/33/88
f 17/9/89 21/34/89 19/33/89
f 22/7/90 25/39/90 26/37/90
f 23/16/91 27/40/91 26/37/91
f 24/15/92 28/38/92 26/37/92
f 29/13/93 32/44/93 33/41/93
f 30/43/94 34/45/94 33/41/94
f 31/6/95 35/42/95 33/41/95
f 36/4/96 39/49/96 40/46/96
f 37/48/97 41/50/97 40/46/97
f 38/3/98 42/47/98 40/46/98
f 43/51/99 46/54/99 47/52/99
f 44/12/100 48/56/100 47/52/100
f 45/55/101 49/53/101 47/52/101
f 50/57/102 53/60/102 54/58/102
f 51/20/103 55/62/103 54/58/103
f 52/61/104 56/59/104 54/58/104
f 57/63/105 60/66/105 61/64/105
f 58/8/106 62/67/106 61/64/106
f 59/10/107 63/65/107 61/64/107
f 64/68/108 67/71/108 68/69/108
f 65/14/109 69/73/109 68/69/109
f 66/72/110 70/70/110 68/69/110
f 71/74/111 74/77/111 75/75/111
f 72/5/112 76/78/112 75/75/112
f 73/11/113 77/76/113 75/75/113
f 78/79/114 81/82/114 82/80/114
f 79/2/115 83/84/115 82/80/115
f 80/83/116 84/81/116 82/80/116
f 1/22/44 7/24/44 11/31/44
f 7/24/45 3/18/45 9/30/45
f 10/21/46 13/32/46 18/35/46
f 13/32/47 9/30/47 16/17/47
f 22/7/48 17/9/48 20/36/48
f 20/36/49 16/17/49 23/16/49
f 24/15/50 27/40/50 32/44/50
f 27/40/51 23/16/51 30/43/51
f 31/6/52 34/45/52 39/49/52
f 34/45/53 30/43/53 37/48/53
f 38/3/54 41/50/54 6/26/54
f 41/50/55 37/48/55 3/18/55
f 44/12/56 46/54/56 56/59/56
f 56/59/57 46/54/57 43/51/57
f 52/61/58 55/62/58 63/65/58
f 63/65/59 55/62/59 51/20/59
f 59/10/60 62/67/60 70/70/60
f 62/67/61 58/8/61 64/68/61
f 66/72/62 69/73/62 77/76/62
f 69/73/63 65/14/63 71/74/63
f 73/11/64 76/78/64 84/81/64
f 76/78/65 72/5/65 78/79/65
f 80/83/66 83/84/66 48/56/66
f 83/84/67 79/2/67 45/55/67
f 72/5/117 74/77/117 35/42/117
f 74/77/69 71/74/69 29/13/69
f 22/7/70 28/38/70 67/71/70
f 28/38/71 24/15/71 65/14/71
f 58/8/72 60/66/72 21/34/72
f 60/66/73 57/63/73 15/19/73
f 8/27/74 14/29/74 53/60/74
f 14/29/75 10/21/75 51/20/75
f 79/2/76 81/82/76 42/47/76
f 81/82/118 78/79/118 36/4/118
f 2/1/78 4/25/78 49/53/78
f 4/25/79 1/22/79 43/51/79
f 8/27/80 50/57/80 43/51/80