# Blender v2.82 (sub 7) OBJ File: 'simple-hexagon.blend'
# www.blender.org
o Circle
v -0.008660 0.995000 0.010000
v 0.008660 0.995000 0.010000
v -0.000000 0.988453 0.000000
v 0.000000 0.997664 0.010000
v -0.000000 0.995779 0.003918
v 0.006328 0.992880 0.002693
v -0.006328 0.992880 0.002693
v -0.857365 0.505000 0.010000
v -0.856025 0.494226 0.000000
v -0.866025 0.490000 0.010000
v -0.856695 0.501920 0.002693
v -0.862370 0.497890 0.003918
v -0.863024 0.490960 0.002693
v -0.864003 0.498832 0.010000
v -0.866025 -0.490000 0.010000
v -0.856025 -0.494227 0.000000
v -0.857365 -0.505000 0.010000
v -0.863023 -0.490960 0.002693
v -0.862370 -0.497890 0.003918
v -0.856695 -0.501921 0.002693
v -0.864002 -0.498832 0.010000
v -0.008660 -0.995000 0.010000
v 0.000000 -0.988453 0.000000
v 0.008660 -0.995000 0.010000
v -0.006328 -0.992880 0.002693
v 0.000000 -0.995779 0.003918
v 0.006328 -0.992880 0.002693
v 0.000000 -0.997664 0.010000
v 0.857365 -0.505000 0.010000
v 0.856025 -0.494226 0.000000
v 0.866025 -0.490000 0.010000
v 0.856695 -0.501920 0.002693
v 0.862370 -0.497889 0.003918
v 0.863024 -0.490960 0.002693
v 0.864003 -0.498832 0.010000
v 0.866025 0.490000 0.010000
v 0.856025 0.494226 0.000000
v 0.857365 0.505000 0.010000
v 0.863024 0.490960 0.002693
v 0.862370 0.497890 0.003918
v 0.856695 0.501921 0.002693
v 0.864003 0.498832 0.010000
v -0.008660 0.995000 0.090000
v -0.000000 0.988453 0.100000
v 0.008660 0.995000 0.090000
v -0.006328 0.992880 0.097307
v -0.000000 0.995779 0.096082
v 0.006328 0.992880 0.097307
v -0.000000 0.997664 0.090000
v -0.857365 0.505000 0.090000
v -0.866025 0.490000 0.090000
v -0.856025 0.494226 0.100000
v -0.864003 0.498832 0.090000
v -0.862370 0.497890 0.096082
v -0.863024 0.490960 0.097307
v -0.856695 0.501920 0.097307
v -0.866025 -0.490000 0.090000
v -0.857365 -0.505000 0.090000
v -0.856025 -0.494227 0.100000
v -0.864003 -0.498832 0.090000
v -0.862370 -0.497890 0.096082
v -0.856695 -0.501921 0.097307
v -0.863024 -0.490960 0.097307
v -0.008660 -0.995000 0.090000
v 0.008660 -0.995000 0.090000
v 0.000000 -0.988453 0.100000
v 0.000000 -0.997664 0.090000
v 0.000000 -0.995779 0.096082
v 0.006328 -0.992880 0.097307
v -0.006328 -0.992880 0.097307
v 0.857365 -0.505000 0.090000
v 0.866025 -0.490000 0.090000
v 0.856025 -0.494226 0.100000
v 0.864003 -0.498832 0.090000
v 0.862370 -0.497890 0.096082
v 0.863024 -0.490960 0.097307
v 0.856695 -0.501921 0.097307
v 0.866025 0.490000 0.090000
v 0.857365 0.505000 0.090000
v 0.856025 0.494226 0.100000
v 0.864003 0.498832 0.090000
v 0.862370 0.497890 0.096082
v 0.856695 0.501921 0.097307
v 0.863024 0.490960 0.097307
v -0.006328 0.992880 0.002693
v -0.006328 0.992880 0.002693
v -0.006328 0.992880 0.002693
v -0.008660 0.995000 0.010000
v -0.008660 0.995000 0.010000
v -0.008660 0.995000 0.010000
v 0.000000 0.997664 0.010000
v 0.000000 0.997664 0.010000
v 0.000000 0.997664 0.010000
v -0.000000 0.995779 0.003918
v -0.000000 0.995779 0.003918
v 0.008660 0.995000 0.010000
v 0.008660 0.995000 0.010000
v 0.008660 0.995000 0.010000
v 0.006328 0.992880 0.002693
v 0.006328 0.992880 0.002693
v 0.006328 0.992880 0.002693
v -0.000000 0.988453 0.000000
v -0.000000 0.988453 0.000000
v -0.000000 0.988453 0.000000
v -0.864003 0.498832 0.010000
v -0.864003 0.498832 0.010000
v -0.864003 0.498832 0.010000
v -0.857365 0.505000 0.010000
v -0.857365 0.505000 0.010000
v -0.857365 0.505000 0.010000
v -0.856695 0.501920 0.002693
v -0.856695 0.501920 0.002693
v -0.856695 0.501920 0.002693
v -0.862370 0.497890 0.003918
v -0.862370 0.497890 0.003918
v -0.856025 0.494226 0.000000
v -0.856025 0.494226 0.000000
v -0.856025 0.494226 0.000000
v -0.863024 0.490960 0.002693
v -0.863024 0.490960 0.002693
v -0.863024 0.490960 0.002693
v -0.866025 0.490000 0.010000
v -0.866025 0.490000 0.010000
v -0.866025 0.490000 0.010000
v -0.864002 -0.498832 0.010000
v -0.864002 -0.498832 0.010000
v -0.864002 -0.498832 0.010000
v -0.866025 -0.490000 0.010000
v -0.866025 -0.490000 0.010000
v -0.866025 -0.490000 0.010000
v -0.863023 -0.490960 0.002693
v -0.863023 -0.490960 0.002693
v -0.863023 -0.490960 0.002693
v -0.862370 -0.497890 0.003918
v -0.862370 -0.497890 0.003918
v -0.856025 -0.494227 0.000000
v -0.856025 -0.494227 0.000000
v -0.856025 -0.494227 0.000000
v -0.856695 -0.501921 0.002693
v -0.856695 -0.501921 0.002693
v -0.856695 -0.501921 0.002693
v -0.857365 -0.505000 0.010000
v -0.857365 -0.505000 0.010000
v -0.857365 -0.505000 0.010000
v 0.000000 -0.997664 0.010000
v 0.000000 -0.997664 0.010000
v 0.000000 -0.997664 0.010000
v -0.008660 -0.995000 0.010000
v -0.008660 -0.995000 0.010000
v -0.008660 -0.995000 0.010000
v -0.006328 -0.992880 0.002693
v -0.006328 -0.992880 0.002693
v -0.006328 -0.992880 0.002693
v 0.000000 -0.995779 0.003918
v 0.000000 -0.995779 0.003918
v 0.000000 -0.988453 0.000000
v 0.000000 -0.988453 0.000000
v 0.000000 -0.988453 0.000000
v 0.006328 -0.992880 0.002693
v 0.006328 -0.992880 0.002693
v 0.006328 -0.992880 0.002693
v 0.008660 -0.995000 0.010000
v 0.008660 -0.995000 0.010000
v 0.008660 -0.995000 0.010000
v 0.864003 -0.498832 0.010000
v 0.864003 -0.498832 0.010000
v 0.864003 -0.498832 0.010000
v 0.857365 -0.505000 0.010000
v 0.857365 -0.505000 0.010000
v 0.857365 -0.505000 0.010000
v 0.856695 -0.501920 0.002693
v 0.856695 -0.501920 0.002693
v 0.856695 -0.501920 0.002693
v 0.862370 -0.497889 0.003918
v 0.862370 -0.497889 0.003918
v 0.856025 -0.494226 0.000000
v 0.856025 -0.494226 0.000000
v 0.856025 -0.494226 0.000000
v 0.863024 -0.490960 0.002693
v 0.863024 -0.490960 0.002693
v 0.863024 -0.490960 0.002693
v 0.866025 -0.490000 0.010000
v 0.866025 -0.490000 0.010000
v 0.866025 -0.490000 0.010000
v 0.864003 0.498832 0.010000
v 0.864003 0.498832 0.010000
v 0.864003 0.498832 0.010000
v 0.866025 0.490000 0.010000
v 0.866025 0.490000 0.010000
v 0.866025 0.490000 0.010000
v 0.863024 0.490960 0.002693
v 0.863024 0.490960 0.002693
v 0.863024 0.490960 0.002693
v 0.862370 0.497890 0.003918
v 0.862370 0.497890 0.003918
v 0.856025 0.494226 0.000000
v 0.856025 0.494226 0.000000
v 0.856025 0.494226 0.000000
v 0.856695 0.501921 0.002693
v 0.856695 0.501921 0.002693
v 0.856695 0.501921 0.002693
v 0.857365 0.505000 0.010000
v 0.857365 0.505000 0.010000
v 0.857365 0.505000 0.010000
v -0.000000 0.997664 0.090000
v -0.000000 0.997664 0.090000
v -0.000000 0.997664 0.090000
v -0.008660 0.995000 0.090000
v -0.008660 0.995000 0.090000
v -0.008660 0.995000 0.090000
v -0.006328 0.992880 0.097307
v -0.006328 0.992880 0.097307
v -0.006328 0.992880 0.097307
v -0.000000 0.995779 0.096082
v -0.000000 0.995779 0.096082
v -0.000000 0.988453 0.100000
v -0.000000 0.988453 0.100000
v -0.000000 0.988453 0.100000
v 0.006328 0.992880 0.097307
v 0.006328 0.992880 0.097307
v 0.006328 0.992880 0.097307
v 0.008660 0.995000 0.090000
v 0.008660 0.995000 0.090000
v 0.008660 0.995000 0.090000
v -0.856695 0.501920 0.097307
v -0.856695 0.501920 0.097307
v -0.856695 0.501920 0.097307
v -0.857365 0.505000 0.090000
v -0.857365 0.505000 0.090000
v -0.857365 0.505000 0.090000
v -0.864003 0.498832 0.090000
v -0.864003 0.498832 0.090000
v -0.864003 0.498832 0.090000
v -0.862370 0.497890 0.096082
v -0.862370 0.497890 0.096082
v -0.866025 0.490000 0.090000
v -0.866025 0.490000 0.090000
v -0.866025 0.490000 0.090000
v -0.863024 0.490960 0.097307
v -0.863024 0.490960 0.097307
v -0.863024 0.490960 0.097307
v -0.856025 0.494226 0.100000
v -0.856025 0.494226 0.100000
v -0.856025 0.494226 0.100000
v -0.863024 -0.490960 0.097307
v -0.863024 -0.490960 0.097307
v -0.863024 -0.490960 0.097307
v -0.866025 -0.490000 0.090000
v -0.866025 -0.490000 0.090000
v -0.866025 -0.490000 0.090000
v -0.864003 -0.498832 0.090000
v -0.864003 -0.498832 0.090000
v -0.864003 -0.498832 0.090000
v -0.862370 -0.497890 0.096082
v -0.862370 -0.497890 0.096082
v -0.857365 -0.505000 0.090000
v -0.857365 -0.505000 0.090000
v -0.857365 -0.505000 0.090000
v -0.856695 -0.501921 0.097307
v -0.856695 -0.501921 0.097307
v -0.856695 -0.501921 0.097307
v -0.856025 -0.494227 0.100000
v -0.856025 -0.494227 0.100000
v -0.856025 -0.494227 0.100000
v -0.006328 -0.992880 0.097307
v -0.006328 -0.992880 0.097307
v -0.006328 -0.992880 0.097307
v -0.008660 -0.995000 0.090000
v -0.008660 -0.995000 0.090000
v -0.008660 -0.995000 0.090000
v 0.000000 -0.997664 0.090000
v 0.000000 -0.997664 0.090000
v 0.000000 -0.997664 0.090000
v 0.000000 -0.995779 0.096082
v 0.000000 -0.995779 0.096082
v 0.008660 -0.995000 0.090000
v 0.008660 -0.995000 0.090000
v 0.008660 -0.995000 0.090000
v 0.006328 -0.992880 0.097307
v 0.006328 -0.992880 0.097307
v 0.006328 -0.992880 0.097307
v 0.000000 -0.988453 0.100000
v 0.000000 -0.988453 0.100000
v 0.000000 -0.988453 0.100000
v 0.856695 -0.501921 0.097307
v 0.856695 -0.501921 0.097307
v 0.856695 -0.501921 0.097307
v 0.857365 -0.505000 0.090000
v 0.857365 -0.505000 0.090000
v 0.857365 -0.505000 0.090000
v 0.864003 -0.498832 0.090000
v 0.864003 -0.498832 0.090000
v 0.864003 -0.498832 0.090000
v 0.862370 -0.497890 0.096082
v 0.862370 -0.497890 0.096082
v 0.866025 -0.490000 0.090000
v 0.866025 -0.490000 0.090000
v 0.866025 -0.490000 0.090000
v 0.863024 -0.490960 0.097307
v 0.863024 -0.490960 0.097307
v 0.863024 -0.490960 0.097307
v 0.856025 -0.494226 0.100000
v 0.856025 -0.494226 0.100000
v 0.856025 -0.494226 0.100000
v 0.863024 0.490960 0.097307
v 0.863024 0.490960 0.097307
v 0.863024 0.490960 0.097307
v 0.866025 0.490000 0.090000
v 0.866025 0.490000 0.090000
v 0.866025 0.490000 0.090000
v 0.864003 0.498832 0.090000
v 0.864003 0.498832 0.090000
v 0.864003 0.498832 0.090000
v 0.862370 0.497890 0.096082
v 0.862370 0.497890 0.096082
v 0.857365 0.505000 0.090000
v 0.857365 0.505000 0.090000
v 0.857365 0.505000 0.090000
v 0.856695 0.501921 0.097307
v 0.856695 0.501921 0.097307
v 0.856695 0.501921 0.097307
v 0.856025 0.494226 0.100000
v 0.856025 0.494226 0.100000
v 0.856025 0.494226 0.100000
vt 0.000000 0.000000
vt 0.000000 0.000000
vt 0.000000 0.000000
vt 0.000000 0.000000
vt 0.000000 0.000000
vt 0.000000 0.000000
vt 0.000000 0.000000
vt 0.000000 0.000000
vt 0.000000 0.000000
vt 0.000000 0.000000
vt 0.000000 0.000000
vt 0.000000 0.000000
vt 0.000000 0.000000
vt 0.000000 0.000000
vt 0.000000 0.000000
vt 0.000000 0.000000
vt 0.000000 0.000000
vt 0.000000 0.000000
vt 0.000000 0.000000
vt 0.000000 0.000000
vt 0.000000 0.000000
vt 0.000000 0.000000
vt 0.000000 0.000000
vt 0.000000 0.000000
vt 0.000000 0.000000
vt 0.000000 0.000000
vt 0.000000 0.000000
vt 0.000000 0.000000
vt 0.000000 0.000000
vt 0.000000 0.000000
vt 0.000000 0.000000
vt 0.000000 0.000000
vt 0.000000 0.000000
vt 0.000000 0.000000
vt 0.000000 0.000000
vt 0.000000 0.000000
vt 0.000000 0.000000
vt 0.000000 0.000000
vt 0.000000 0.000000
vt 0.000000 0.000000
vt 0.000000 0.000000
vt 0.000000 0.000000
vt 0.000000 0.000000
vt 0.000000 0.000000
vt 0.000000 0.000000
vt 0.000000 0.000000
vt 0.000000 0.000000
vt 0.000000 0.000000
vt 0.000000 0.000000
vt 0.000000 0.000000
vt 0.000000 0.000000
vt 0.000000 0.000000
vt 0.000000 0.000000
vt 0.000000 0.000000
vt 0.000000 0.000000
vt 0.000000 0.000000
vt 0.000000 0.000000
vt 0.000000 0.000000
vt 0.000000 0.000000
vt 0.000000 0.000000
vt 0.000000 0.000000
vt 0.000000 0.000000
vt 0.000000 0.000000
vt 0.000000 0.000000
vt 0.000000 0.000000
vt 0.000000 0.000000
vt 0.000000 0.000000
vt 0.000000 0.000000
vt 0.000000 0.000000
vt 0.000000 0.000000
vt 0.000000 0.000000
vt 0.000000 0.000000
vt 0.000000 0.000000
vt 0.000000 0.000000
vt 0.000000 0.000000
vt 0.000000 0.000000
vt 0.000000 0.000000
vt 0.000000 0.000000
vt 0.000000 0.000000
vt 0.000000 0.000000
vt 0.000000 0.000000
vt 0.000000 0.000000
vt 0.000000 0.000000
vt 0.000000 0.000000
vt 0.000000 0.000000
vt 0.000000 0.000000
vt 0.000000 0.000000
vt 0.000000 0.000000
vt 0.000000 0.000000
vt 0.000000 0.000000
vt 0.000000 0.000000
vt 0.000000 0.000000
vt 0.000000 0.000000
vt 0.000000 0.000000
vt 0.000000 0.000000
vt 0.000000 0.000000
vt 0.000000 0.000000
vt 0.000000 0.000000
vt 0.000000 0.000000
vt 0.000000 0.000000
vt 0.000000 0.000000
vt 0.000000 0.000000
vt 0.000000 0.000000
vt 0.000000 0.000000
vt 0.000000 0.000000
vt 0.000000 0.000000
vt 0.000000 0.000000
vt 0.000000 0.000000
vt 0.000000 0.000000
vt 0.000000 0.000000
vt 0.000000 0.000000
vt 0.000000 0.000000
vt 0.000000 0.000000
vt 0.000000 0.000000
vt 0.000000 0.000000
vt 0.000000 0.000000
vt 0.000000 0.000000
vt 0.000000 0.000000
vt 0.000000 0.000000
vt 0.000000 0.000000
vt 0.000000 0.000000
vt 0.000000 0.000000
vt 0.000000 0.000000
vt 0.000000 0.000000
vt 0.000000 0.000000
vt 0.000000 0.000000
vt 0.000000 0.000000
vt 0.000000 0.000000
vt 0.000000 0.000000
vt 0.000000 0.000000
vt 0.000000 0.000000
vt 0.000000 0.000000
vt 0.000000 0.000000
vt 0.000000 0.000000
vt 0.000000 0.000000
vt 0.000000 0.000000
vt 0.000000 0.000000
vt 0.000000 0.000000
vt 0.000000 0.000000
vt 0.000000 0.000000
vt 0.000000 0.000000
vt 0.000000 0.000000
vt 0.000000 0.000000
vt 0.000000 0.000000
vt 0.000000 0.000000
vt 0.000000 0.000000
vt 0.000000 0.000000
vt 0.000000 0.000000
vt 0.000000 0.000000
vt 0.000000 0.000000
vt 0.000000 0.000000
vt 0.000000 0.000000
vt 0.000000 0.000000
vt 0.000000 0.000000
vt 0.000000 0.000000
vt 0.000000 0.000000
vt 0.000000 0.000000
vt 0.000000 0.000000
vt 0.000000 0.000000
vt 0.000000 0.000000
vt 0.000000 0.000000
vt 0.000000 0.000000
vt 0.000000 0.000000
vt 0.000000 0.000000
vt 0.000000 0.000000
vt 0.000000 0.000000
vt 0.000000 0.000000
vt 0.000000 0.000000
vt 0.000000 0.000000
vt 0.000000 0.000000
vt 0.000000 0.000000
vt 0.000000 0.000000
vt 0.000000 0.000000
vt 0.000000 0.000000
vt 0.000000 0.000000
vt 0.000000 0.000000
vt 0.000000 0.000000
vt 0.000000 0.000000
vt 0.000000 0.000000
vt 0.000000 0.000000
vt 0.000000 0.000000
vt 0.000000 0.000000
vt 0.000000 0.000000
vt 0.000000 0.000000
vt 0.000000 0.000000
vt 0.000000 0.000000
vt 0.000000 0.000000
vt 0.000000 0.000000
vt 0.000000 0.000000
vt 0.000000 0.000000
vt 0.000000 0.000000
vt 0.000000 0.000000
vt 0.000000 0.000000
vt 0.000000 0.000000
vt 0.000000 0.000000
vt 0.000000 0.000000
vt 0.000000 0.000000
vt 0.000000 0.000000
vt 0.000000 0.000000
vt 0.000000 0.000000
vt 0.000000 0.000000
vt 0.000000 0.000000
vt 0.000000 0.000000
vt 0.000000 0.000000
vt 0.000000 0.000000
vt 0.000000 0.000000
vt 0.000000 0.000000
vt 0.000000 0.000000
vt 0.000000 0.000000
vt 0.000000 0.000000
vt 0.000000 0.000000
vt 0.000000 0.000000
vt 0.000000 0.000000
vt 0.000000 0.000000
vt 0.000000 0.000000
vt 0.000000 0.000000
vt 0.000000 0.000000
vt 0.000000 0.000000
vt 0.000000 0.000000
vt 0.000000 0.000000
vt 0.000000 0.000000
vt 0.000000 0.000000
vt 0.000000 0.000000
vt 0.000000 0.000000
vt 0.000000 0.000000
vt 0.000000 0.000000
vt 0.000000 0.000000
vt 0.000000 0.000000
vt 0.000000 0.000000
vt 0.000000 0.000000
vt 0.000000 0.000000
vt 0.000000 0.000000
vt 0.000000 0.000000
vt 0.000000 0.000000
vt 0.000000 0.000000
vt 0.000000 0.000000
vt 0.000000 0.000000
vt 0.000000 0.000000
vt 0.000000 0.000000
vt 0.000000 0.000000
vt 0.000000 0.000000
vt 0.000000 0.000000
vt 0.000000 0.000000
vt 0.000000 0.000000
vt 0.000000 0.000000
vt 0.000000 0.000000
vt 0.000000 0.000000
vt 0.000000 0.000000
vt 0.000000 0.000000
vt 0.000000 0.000000
vt 0.000000 0.000000
vt 0.000000 0.000000
vt 0.000000 0.000000
vt 0.000000 0.000000
vt 0.000000 0.000000
vt 0.000000 0.000000
vt 0.000000 0.000000
vt 0.000000 0.000000
vt 0.000000 0.000000
vt 0.000000 0.000000
vt 0.000000 0.000000
vt 0.000000 0.000000
vt 0.000000 0.000000
vt 0.000000 0.000000
vt 0.000000 0.000000
vt 0.000000 0.000000
vt 0.000000 0.000000
vt 0.000000 0.000000
vt 0.000000 0.000000
vt 0.000000 0.000000
vt 0.000000 0.000000
vt 0.000000 0.000000
vt 0.000000 0.000000
vt 0.000000 0.000000
vt 0.000000 0.000000
vt 0.000000 0.000000
vt 0.000000 0.000000
vt 0.000000 0.000000
vt 0.000000 0.000000
vt 0.000000 0.000000
vt 0.000000 0.000000
vt 0.000000 0.000000
vt 0.000000 0.000000
vt 0.000000 0.000000
vt 0.000000 0.000000
vt 0.000000 0.000000
vt 0.000000 0.000000
vt 0.000000 0.000000
vt 0.000000 0.000000
vt 0.000000 0.000000
vt 0.000000 0.000000
vt 0.000000 0.000000
vt 0.000000 0.000000
vt 0.000000 0.000000
vt 0.000000 0.000000
vt 0.000000 0.000000
vt 0.000000 0.000000
vt 0.000000 0.000000
vt 0.000000 0.000000
vt 0.000000 0.000000
vt 0.000000 0.000000
vt 0.000000 0.000000
vt 0.000000 0.000000
vt 0.000000 0.000000
vt 0.000000 0.000000
vt 0.000000 0.000000
vt 0.000000 0.000000
vt 0.000000 0.000000
vt 0.000000 0.000000
vt 0.000000 0.000000
vt 0.000000 0.000000
vt 0.000000 0.000000
vt 0.000000 0.000000
vt 0.000000 0.000000
vt 0.000000 0.000000
vt 0.000000 0.000000
vt 0.000000 0.000000
vt 0.000000 0.000000
vt 0.000000 0.000000
vt 0.000000 0.000000
vt 0.000000 0.000000
vt 0.000000 0.000000
vt 0.000000 0.000000
vt 0.000000 0.000000
vn 0.5000 0.8660 0.0000
vn 1.0000 0.0000 0.0000
vn -0.5000 -0.8660 0.0000
vn 0.0000 0.0000 1.0000
vn 0.5000 -0.8660 -0.0000
vn 0.0000 0.0000 -1.0000
vn -1.0000 0.0000 0.0000
vn -0.3305 0.8730 -0.3587
vn 0.2819 0.9164 -0.2840
vn 0.0453 0.4711 -0.8809
vn -0.6527 0.7024 -0.2840
vn -0.3853 0.2748 -0.8809
vn -0.9213 0.1503 -0.3587
vn -0.9346 -0.2141 -0.2840
vn -0.4306 -0.1963 -0.8809
vn -0.5908 -0.7227 -0.3587
vn -0.2819 -0.9164 -0.2841
vn -0.0453 -0.4711 -0.8809
vn 0.3305 -0.8730 -0.3587
vn 0.6527 -0.7024 -0.2840
vn 0.3854 -0.2747 -0.8809
vn 0.9213 -0.1503 -0.3587
vn 0.9346 0.2141 -0.2840
vn 0.4306 0.1963 -0.8809
vn 0.5908 0.7227 -0.3587
vn -0.2819 0.9164 0.2840
vn -0.0453 0.4711 0.8809
vn 0.3305 0.8730 0.3587
vn -0.5908 0.7227 0.3587
vn -0.9346 0.2140 0.2840
vn -0.4306 0.1963 0.8809
vn -0.9213 -0.1503 0.3587
vn -0.6527 -0.7024 0.2840
vn -0.3854 -0.2748 0.8809
vn -0.3305 -0.8730 0.3587
vn 0.2819 -0.9164 0.2840
vn 0.0453 -0.4711 0.8809
vn 0.5908 -0.7227 0.3587
vn 0.9346 -0.2140 0.2840
vn 0.4306 -0.1963 0.8809
vn 0.9213 0.1503 0.3587
vn 0.6527 0.7024 0.2840
vn 0.3854 0.2748 0.8809
vn -0.4625 0.8011 -0.3800
vn -0.1796 0.3110 -0.9333
vn -0.9250 -0.0000 -0.3800
vn -0.3591 0.0000 -0.9333
vn -0.4625 -0.8011 -0.3800
vn -0.1796 -0.3110 -0.9333
vn 0.4625 -0.8011 -0.3800
vn 0.1796 -0.3110 -0.9333
vn 0.9250 0.0000 -0.3800
vn 0.3591 0.0000 -0.9333
vn 0.4625 0.8011 -0.3800
vn 0.1796 0.3110 -0.9333
vn -0.1796 0.3110 0.9333
vn -0.4625 0.8011 0.3800
vn -0.3591 0.0000 0.9333
vn -0.9250 0.0000 0.3800
vn -0.1796 -0.3110 0.9333
vn -0.4625 -0.8011 0.3800
vn 0.1796 -0.3110 0.9333
vn 0.4625 -0.8011 0.3800
vn 0.3591 0.0000 0.9333
vn 0.9250 0.0000 0.3800
vn 0.1796 0.3110 0.9333
vn 0.4625 0.8011 0.3800
vn 0.9748 -0.2233 0.0000
vn 0.6807 -0.7325 0.0000
vn -0.2940 -0.9558 0.0000
vn 0.2940 -0.9558 0.0000
vn -0.6807 -0.7325 0.0000
vn -0.9748 -0.2233 -0.0000
vn -0.6807 0.7325 0.0000
vn -0.9748 0.2233 0.0000
vn 0.6807 0.7325 0.0000
vn 0.9748 0.2233 0.0000
vn 0.2940 0.9558 0.0000
vn -0.2940 0.9558 0.0000
vn -0.5000 0.8660 -0.0000
vn -0.2819 0.9164 -0.2841
vn 0.3305 0.8730 -0.3587
vn -0.0453 0.4711 -0.8809
vn -0.5908 0.7227 -0.3587
vn -0.4306 0.1963 -0.8809
vn -0.9346 0.2141 -0.2840
vn -0.9213 -0.1503 -0.3587
vn -0.3853 -0.2748 -0.8809
vn -0.6527 -0.7024 -0.2840
vn -0.3305 -0.8730 -0.3587
vn 0.0453 -0.4711 -0.8809
vn 0.2819 -0.9164 -0.2840
vn 0.5908 -0.7227 -0.3587
vn 0.4306 -0.1963 -0.8809
vn 0.9346 -0.2141 -0.2840
vn 0.9213 0.1503 -0.3587
vn 0.3854 0.2748 -0.8809
vn 0.6527 0.7024 -0.2840
vn -0.3305 0.8730 0.3587
vn 0.0453 0.4711 0.8809
vn 0.2819 0.9164 0.2840
vn -0.6527 0.7024 0.2840
vn -0.9213 0.1503 0.3587
vn -0.3854 0.2748 0.8809
vn -0.9346 -0.2140 0.2840
vn -0.5908 -0.7227 0.3587
vn -0.4306 -0.1963 0.8809
vn -0.2819 -0.9164 0.2841
vn 0.3305 -0.8730 0.3587
vn -0.0453 -0.4711 0.8809
vn 0.6527 -0.7024 0.2840
vn 0.9213 -0.1503 0.3587
vn 0.3854 -0.2748 0.8809
vn 0.9346 0.2140 0.2840
vn 0.5908 0.7227 0.3587
vn 0.4306 0.1963 0.8809
vn 0.9748 -0.2232 -0.0000
vn 0.9748 0.2232 0.0000
s off
f 97/1/1 317/2/1 203/3/1
f 189/4/2 297/5/2 183/6/2
f 149/7/3 257/8/3 143/9/3
f 263/10/4 303/11/4 217/12/4
f 169/13/5 277/14/5 163/15/5
f 157/16/6 137/17/6 103/18/6
f 129/19/7 237/20/7 123/21/7
f 88/22/8 94/23/8 85/24/8
f 96/25/9 95/26/9 92/27/9
f 102/28/10 5/29/10 100/30/10
f 108/31/11 114/32/11 105/33/11
f 116/34/12 115/35/12 112/36/12
f 122/37/13 12/38/13 120/39/13
f 128/40/14 134/41/14 125/42/14
f 136/43/15 135/44/15 132/45/15
f 142/46/16 19/47/16 140/48/16
f 148/49/17 154/50/17 145/51/17
f 156/52/18 155/53/18 152/54/18
f 162/55/19 26/56/19 160/57/19
f 168/58/20 174/59/20 165/60/20
f 176/61/21 175/62/21 172/63/21
f 182/64/22 33/65/22 180/66/22
f 188/67/23 194/68/23 185/69/23
f 196/70/24 195/71/24 192/72/24
f 202/73/25 40/74/25 200/75/25
f 208/76/26 214/77/26 205/78/26
f 216/79/27 215/80/27 212/81/27
f 222/82/28 47/83/28 220/84/28
f 228/85/29 234/86/29 225/87/29
f 236/88/30 235/89/30 232/90/30
f 242/91/31 54/92/31 240/93/31
f 248/94/32 254/95/32 245/96/32
f 256/97/33 255/98/33 252/99/33
f 262/100/34 61/101/34 260/102/34
f 268/103/35 274/104/35 265/105/35
f 276/106/36 275/107/36 272/108/36
f 282/109/37 68/110/37 280/111/37
f 288/112/38 294/113/38 285/114/38
f 296/115/39 295/116/39 292/117/39
f 302/118/40 75/119/40 300/120/40
f 308/121/41 314/122/41 305/123/41
f 316/124/42 315/125/42 312/126/42
f 322/127/43 82/128/43 320/129/43
f 89/130/44 113/131/44 109/132/44
f 7/133/45 118/134/45 11/135/45
f 10/136/46 133/137/46 130/138/46
f 13/139/47 138/140/47 18/141/47
f 150/142/48 141/143/48 153/144/48
f 20/145/49 158/146/49 25/147/49
f 24/148/50 173/149/50 170/150/50
f 27/151/51 178/152/51 32/153/51
f 31/154/52 193/155/52 190/156/52
f 34/157/53 37/158/53 39/159/53
f 204/160/54 101/161/54 2/162/54
f 41/163/55 3/164/55 6/165/55
f 218/166/56 227/167/56 244/168/56
f 56/169/57 209/170/57 229/171/57
f 52/172/58 247/173/58 264/174/58
f 63/175/59 51/176/59 57/177/59
f 59/178/60 267/179/60 284/180/60
f 62/181/61 64/182/61 70/183/61
f 66/184/62 287/185/62 304/186/62
f 69/187/63 71/188/63 77/189/63
f 73/190/64 307/191/64 80/192/64
f 76/193/65 78/194/65 84/195/65
f 324/196/66 221/197/66 44/198/66
f 83/199/67 45/200/67 48/201/67
f 298/202/68 167/203/68 184/204/68
f 74/205/69 29/206/69 35/207/69
f 22/208/70 273/209/70 270/210/70
f 28/211/71 278/212/71 67/213/71
f 258/214/72 127/215/72 144/216/72
f 60/217/73 15/218/73 21/219/73
f 110/220/74 233/221/74 230/222/74
f 14/223/75 238/224/75 53/225/75
f 318/226/76 187/227/76 38/228/76
f 81/229/77 36/230/77 42/231/77
f 98/232/78 207/233/78 224/234/78
f 4/235/79 210/236/79 49/237/79
f 8/238/80 43/239/80 1/240/80
f 97/1/1 223/241/1 317/2/1
f 189/4/2 309/242/2 297/5/2
f 149/7/3 269/243/3 257/8/3
f 217/12/4 243/244/4 263/10/4
f 263/10/4 283/245/4 303/11/4
f 303/11/4 323/246/4 217/12/4
f 169/13/5 289/247/5 277/14/5
f 137/17/6 117/248/6 103/18/6
f 103/18/6 197/249/6 177/250/6
f 177/250/6 157/16/6 103/18/6
f 129/19/7 249/251/7 237/20/7
f 88/22/81 91/252/81 94/23/81
f 96/25/82 99/253/82 95/26/82
f 102/28/83 86/254/83 5/29/83
f 108/31/84 111/255/84 114/32/84
f 116/34/85 119/256/85 115/35/85
f 122/37/86 106/257/86 12/38/86
f 128/40/87 131/258/87 134/41/87
f 136/43/88 139/259/88 135/44/88
f 142/46/89 126/260/89 19/47/89
f 148/49/90 151/261/90 154/50/90
f 156/52/91 159/262/91 155/53/91
f 162/55/92 146/263/92 26/56/92
f 168/58/93 171/264/93 174/59/93
f 176/61/94 179/265/94 175/62/94
f 182/64/95 166/266/95 33/65/95
f 188/67/96 191/267/96 194/68/96
f 196/70/97 199/268/97 195/71/97
f 202/73/98 186/269/98 40/74/98
f 208/76/99 211/270/99 214/77/99
f 216/79/100 219/271/100 215/80/100
f 222/82/101 206/272/101 47/83/101
f 228/85/102 231/273/102 234/86/102
f 236/88/103 239/274/103 235/89/103
f 242/91/104 226/275/104 54/92/104
f 248/94/105 251/276/105 254/95/105
f 256/97/106 259/277/106 255/98/106
f 262/100/107 246/278/107 61/101/107
f 268/103/108 271/279/108 274/104/108
f 276/106/109 279/280/109 275/107/109
f 282/109/110 266/281/110 68/110/110
f 288/112/111 291/282/111 294/113/111
f 296/115/112 299/283/112 295/116/112
f 302/118/113 286/284/113 75/119/113
f 308/121/114 311/285/114 314/122/114
f 316/124/115 319/286/115 315/125/115
f 322/127/116 306/287/116 82/128/116
f 89/130/44 87/288/44 113/131/44
f 7/133/45 104/289/45 118/134/45
f 10/136/46 121/290/46 133/137/46
f 13/139/47 9/291/47 138/140/47
f 150/142/48 17/292/48 141/143/48
f 20/145/49 16/293/49 158/146/49
f 24/148/50 161/294/50 173/149/50
f 27/151/51 23/295/51 178/152/51
f 31/154/52 181/296/52 193/155/52
f 34/157/53 30/297/53 37/158/53
f 204/160/54 201/298/54 101/161/54
f 41/163/55 198/299/55 3/164/55
f 218/166/56 213/300/56 227/167/56
f 56/169/57 46/301/57 209/170/57
f 52/172/58 241/302/58 247/173/58
f 63/175/59 55/303/59 51/176/59
f 59/178/60 261/304/60 267/179/60
f 62/181/61 58/305/61 64/182/61
f 66/184/62 281/306/62 287/185/62
f 69/187/63 65/307/63 71/188/63
f 73/190/64 301/308/64 307/191/64
f 76/193/65 72/309/65 78/194/65
f 324/196/66 321/310/66 221/197/66
f 83/199/67 79/311/67 45/200/67
f 298/202/117 293/312/117 167/203/117
f 74/205/69 290/313/69 29/206/69
f 22/208/70 147/314/70 273/209/70
f 28/211/71 164/315/71 278/212/71
f 258/214/72 253/316/72 127/215/72
f 60/217/73 250/317/73 15/218/73
f 110/220/74 107/318/74 233/221/74
f 14/223/75 124/319/75 238/224/75
f 318/226/76 313/320/76 187/227/76
f 81/229/118 310/321/118 36/230/118
f 98/232/78 93/322/78 207/233/78
f 4/235/79 90/323/79 210/236/79
f 8/238/80 50/324/80 43/239/80