# Blender v2.82 (sub 7) OBJ File: 'hexagon-debug.blend'
# www.blender.org
o Circle
v 0.000000 1.000000 0.000000
v -0.866025 0.500000 0.000000
v -0.866025 -0.500000 0.000000
v 0.000000 -1.000000 0.000000
v 0.866025 -0.500000 0.000000
v 0.866025 0.500000 0.000000
v 0.000000 1.000000 0.050000
v -0.866025 0.500000 0.050000
v -0.866025 -0.500000 0.050000
v 0.000000 -1.000000 0.050000
v 0.866025 -0.500000 0.050000
v 0.866025 0.500000 0.050000
v -0.866025 0.500000 0.050000
v 0.000000 1.000000 0.050000
v -0.866025 -0.500000 0.050000
v 0.000000 -1.000000 0.050000
v 0.866025 -0.500000 0.050000
v 0.866025 0.500000 0.050000
v 0.000000 -1.000000 0.000000
vt 0.000000 0.000000
vt 0.000000 0.000000
vt 0.000000 0.000000
vt 0.000000 0.000000
vt 0.000000 0.000000
vt 0.000000 0.000000
vt 0.000000 0.000000
vt 0.000000 0.000000
vt 0.000000 0.000000
vt 0.000000 0.000000
vt 0.000000 0.000000
vt 0.000000 0.000000
vt 0.000000 0.000000
vt 0.000000 0.000000
vt 0.000000 0.000000
vt 0.000000 0.000000
vt 0.000000 0.000000
vt 0.000000 0.000000
vt 0.000000 0.000000
vn 0.0000 0.0000 -1.0000
vn 0.0000 0.0000 1.0000
vn -0.5000 0.8660 0.0000
vn 0.5000 0.8660 0.0000
vn 0.5000 -0.8660 0.0000
vn -1.0000 0.0000 0.0000
vn 1.0000 0.0000 0.0000
vn -0.5000 -0.8660 0.0000
s off
f 1/1/1 5/2/1 3/3/1
f 18/4/2 14/5/2 15/6/2
f 2/7/3 7/8/3 1/1/3
f 1/1/4 12/9/4 6/10/4
f 5/2/5 10/11/5 4/12/5
f 3/3/6 8/13/6 2/7/6
f 6/10/7 11/14/7 5/2/7
f 4/12/8 9/15/8 3/3/8
f 3/3/1 2/7/1 1/1/1
f 1/1/1 6/10/1 5/2/1
f 5/2/1 19/16/1 3/3/1
f 14/5/2 13/17/2 15/6/2
f 15/6/2 16/18/2 17/19/2
f 17/19/2 18/4/2 15/6/2
f 2/7/3 8/13/3 7/8/3
f 1/1/4 7/8/4 12/9/4
f 5/2/5 11/14/5 10/11/5
f 3/3/6 9/15/6 8/13/6
f 6/10/7 12/9/7 11/14/7
f 4/12/8 10/11/8 9/15/8
o x_Text.001
v 0.744731 -0.076758 0.076346
v 0.707111 -0.076758 0.076346
v 0.660581 -0.023628 0.076346
v 0.616691 -0.076758 0.076346
v 0.579731 -0.076758 0.076346
v 0.642101 -0.001518 0.076346
v 0.579731 0.071412 0.076346
v 0.616691 0.071412 0.076346
v 0.660581 0.020592 0.076346
v 0.702821 0.071412 0.076346
v 0.740441 0.071412 0.076346
v 0.679391 -0.001518 0.076346
v 0.744731 -0.076758 0.036346
v 0.707111 -0.076758 0.036346
v 0.660581 -0.023628 0.036346
v 0.616691 -0.076758 0.036346
v 0.579731 -0.076758 0.036346
v 0.642101 -0.001518 0.036346
v 0.579731 0.071412 0.036346
v 0.616691 0.071412 0.036346
v 0.660581 0.020592 0.036346
v 0.702821 0.071412 0.036346
v 0.740441 0.071412 0.036346
v 0.679391 -0.001518 0.036346
v 0.744731 -0.076758 0.036346
v 0.744731 -0.076758 0.076346
v 0.707111 -0.076758 0.036346
v 0.707111 -0.076758 0.076346
v 0.660581 -0.023628 0.036346
v 0.660581 -0.023628 0.076346
v 0.616691 -0.076758 0.036346
v 0.616691 -0.076758 0.076346
v 0.579731 -0.076758 0.036346
v 0.579731 -0.076758 0.076346
v 0.642101 -0.001518 0.036346
v 0.642101 -0.001518 0.076346
v 0.579731 0.071412 0.036346
v 0.579731 0.071412 0.076346
v 0.616691 0.071412 0.036346
v 0.616691 0.071412 0.076346
v 0.660581 0.020592 0.036346
v 0.660581 0.020592 0.076346
v 0.702821 0.071412 0.036346
v 0.702821 0.071412 0.076346
v 0.740441 0.071412 0.036346
v 0.740441 0.071412 0.076346
v 0.679391 -0.001518 0.036346
v 0.679391 -0.001518 0.076346
vt 0.454545 0.000000
vt 0.636364 0.000000
vt 0.545455 0.000000
vt 0.727273 0.000000
vt 0.909091 0.000000
vt 0.818182 0.000000
vt 1.000000 0.000000
vt 0.363636 0.000000
vt 0.181818 0.000000
vt 0.000000 0.000000
vt 0.272727 0.000000
vt 0.090909 0.000000
vt 0.636364 0.000000
vt 0.454545 0.000000
vt 0.545455 0.000000
vt 0.727273 0.000000
vt 0.909091 0.000000
vt 0.818182 0.000000
vt 1.000000 0.000000
vt 0.363636 0.000000
vt 0.181818 0.000000
vt 0.000000 0.000000
vt 0.272727 0.000000
vt 0.090909 0.000000
vt 0.083333 1.000000
vt 0.000000 0.000000
vt 0.000000 1.000000
vt 0.166667 1.000000
vt 0.083333 0.000000
vt 0.250000 1.000000
vt 0.166667 0.000000
vt 0.333333 1.000000
vt 0.250000 0.000000
vt 0.416667 1.000000
vt 0.333333 0.000000
vt 0.500000 1.000000
vt 0.416667 0.000000
vt 0.583333 1.000000
vt 0.500000 0.000000
vt 0.666667 1.000000
vt 0.583333 0.000000
vt 0.750000 1.000000
vt 0.666667 0.000000
vt 0.833333 1.000000
vt 0.750000 0.000000
vt 0.916667 1.000000
vt 0.833333 0.000000
vt 1.000000 1.000000
vt 0.916667 0.000000
vt 1.000000 0.000000
vn 0.0000 0.0000 1.0000
vn 0.0000 0.0000 -1.0000
vn -0.4130 -0.9107 0.0000
vn 0.9098 -0.4149 0.0000
vn 0.0144 -0.9999 0.0000
vn 0.4261 -0.9047 0.0000
vn -0.9050 -0.4253 0.0000
vn -1.0000 -0.0077 0.0000
vn -0.9083 0.4183 0.0000
vn 0.4162 0.9093 0.0000
vn -0.0094 0.9999 0.0000
vn -0.4247 0.9053 0.0000
vn 0.9060 0.4231 0.0000
vn 0.9999 0.0091 0.0000
s off
f 25/20/9 27/21/9 26/22/9
f 25/20/9 28/23/9 27/21/9
f 28/23/9 30/24/9 29/25/9
f 28/23/9 31/26/9 30/24/9
f 25/20/9 31/26/9 28/23/9
f 24/27/9 31/26/9 25/20/9
f 24/27/9 22/28/9 31/26/9
f 22/28/9 20/29/9 31/26/9
f 24/27/9 23/30/9 22/28/9
f 21/31/9 20/29/9 22/28/9
f 39/32/10 37/33/10 38/34/10
f 40/35/10 37/33/10 39/32/10
f 42/36/10 40/35/10 41/37/10
f 43/38/10 40/35/10 42/36/10
f 43/38/10 37/33/10 40/35/10
f 43/38/10 36/39/10 37/33/10
f 34/40/10 36/39/10 43/38/10
f 32/41/10 34/40/10 43/38/10
f 35/42/10 36/39/10 34/40/10
f 32/41/10 33/43/10 34/40/10
s 1
f 47/44/11 44/45/12 45/46/12
f 49/47/13 46/48/11 47/44/11
f 51/49/14 48/50/13 49/47/13
f 53/51/15 50/52/14 51/49/14
f 55/53/16 52/54/15 53/51/15
f 57/55/17 54/56/16 55/53/16
f 59/57/18 56/58/17 57/55/17
f 61/59/19 58/60/18 59/57/18
f 63/61/20 60/62/19 61/59/19
f 65/63/21 62/64/20 63/61/20
f 67/65/22 64/66/21 65/63/21
f 45/67/12 66/68/22 67/65/22
f 47/44/11 46/48/11 44/45/12
f 49/47/13 48/50/13 46/48/11
f 51/49/14 50/52/14 48/50/13
f 53/51/15 52/54/15 50/52/14
f 55/53/16 54/56/16 52/54/15
f 57/55/17 56/58/17 54/56/16
f 59/57/18 58/60/18 56/58/17
f 61/59/19 60/62/19 58/60/18
f 63/61/20 62/64/20 60/62/19
f 65/63/21 64/66/21 62/64/20
f 67/65/22 66/68/22 64/66/21
f 45/67/12 44/69/12 66/68/22
o y_Text.002
v -0.068579 0.563171 0.076666
v -0.018089 0.670751 0.076666
v -0.075509 0.787241 0.076666
v -0.042179 0.787241 0.076666
v -0.002249 0.703751 0.076666
v 0.036031 0.787241 0.076666
v 0.069031 0.787241 0.076666
v -0.035909 0.563171 0.076666
v -0.068579 0.563171 0.036666
v -0.018089 0.670751 0.036666
v -0.075509 0.787241 0.036666
v -0.042179 0.787241 0.036666
v -0.002249 0.703751 0.036666
v 0.036031 0.787241 0.036666
v 0.069031 0.787241 0.036666
v -0.035909 0.563171 0.036666
v -0.068579 0.563171 0.036666
v -0.068579 0.563171 0.076666
v -0.018089 0.670751 0.036666
v -0.018089 0.670751 0.076666
v -0.075509 0.787241 0.036666
v -0.075509 0.787241 0.076666
v -0.042179 0.787241 0.036666
v -0.042179 0.787241 0.076666
v -0.002249 0.703751 0.036666
v -0.002249 0.703751 0.076666
v 0.036031 0.787241 0.036666
v 0.036031 0.787241 0.076666
v 0.069031 0.787241 0.036666
v 0.069031 0.787241 0.076666
v -0.035909 0.563171 0.036666
v -0.035909 0.563171 0.076666
vt 0.142857 0.000000
vt 0.428571 0.000000
vt 0.285714 0.000000
vt 0.571429 0.000000
vt 0.857143 0.000000
vt 0.714286 0.000000
vt 1.000000 0.000000
vt 0.000000 0.000000
vt 0.428571 0.000000
vt 0.142857 0.000000
vt 0.285714 0.000000
vt 0.571429 0.000000
vt 0.857143 0.000000
vt 0.714286 0.000000
vt 1.000000 0.000000
vt 0.000000 0.000000
vt 0.125000 1.000000
vt 0.000000 0.000000
vt 0.000000 1.000000
vt 0.250000 1.000000
vt 0.125000 0.000000
vt 0.375000 1.000000
vt 0.250000 0.000000
vt 0.500000 1.000000
vt 0.375000 0.000000
vt 0.625000 1.000000
vt 0.500000 0.000000
vt 0.750000 1.000000
vt 0.625000 0.000000
vt 0.875000 1.000000
vt 0.750000 0.000000
vt 1.000000 1.000000
vt 0.875000 0.000000
vt 1.000000 0.000000
vn 0.0000 0.0000 1.0000
vn 0.0000 0.0000 -1.0000
vn -0.9999 -0.0096 0.0000
vn -0.8441 -0.5362 0.0000
vn -0.8491 0.5281 0.0000
vn 0.5332 0.8460 0.0000
vn -0.0081 0.9999 0.0000
vn -0.5400 0.8416 0.0000
vn 0.8438 0.5366 0.0000
vn 0.5366 -0.8438 0.0000
s off
f 69/70/23 71/71/23 70/72/23
f 69/70/23 72/73/23 71/71/23
f 72/73/23 74/74/23 73/75/23
f 72/73/23 75/76/23 74/74/23
f 69/70/23 75/76/23 72/73/23
f 68/77/23 75/76/23 69/70/23
f 79/78/24 77/79/24 78/80/24
f 80/81/24 77/79/24 79/78/24
f 82/82/24 80/81/24 81/83/24
f 83/84/24 80/81/24 82/82/24
f 83/84/24 77/79/24 80/81/24
f 83/84/24 76/85/24 77/79/24
s 1
f 87/86/25 84/87/26 85/88/26
f 89/89/27 86/90/25 87/86/25
f 91/91/28 88/92/27 89/89/27
f 93/93/29 90/94/28 91/91/28
f 95/95/30 92/96/29 93/93/29
f 97/97/31 94/98/30 95/95/30
f 99/99/32 96/100/31 97/97/31
f 85/101/26 98/102/32 99/99/32
f 87/86/25 86/90/25 84/87/26
f 89/89/27 88/92/27 86/90/25
f 91/91/28 90/94/28 88/92/27
f 93/93/29 92/96/29 90/94/28
f 95/95/30 94/98/30 92/96/29
f 97/97/31 96/100/31 94/98/30
f 99/99/32 98/102/32 96/100/31
f 85/101/26 84/103/26 98/102/32