# Blender v2.82 (sub 7) OBJ File: 'simple-hexagon.blend'
# www.blender.org
o Circle
v 0.000000 1.000000 0.000000
v -0.866025 0.500000 0.000000
v -0.866025 -0.500000 0.000000
v 0.000000 -1.000000 0.000000
v 0.866025 -0.500000 0.000000
v 0.866025 0.500000 0.000000
v 0.000000 1.000000 0.100000
v -0.866025 0.500000 0.100000
v -0.866025 -0.500000 0.100000
v 0.000000 -1.000000 0.100000
v 0.866025 -0.500000 0.100000
v 0.866025 0.500000 0.100000
vt 0.000000 0.000000
vt 0.000000 0.000000
vt 0.000000 0.000000
vt 0.000000 0.000000
vt 0.000000 0.000000
vt 0.000000 0.000000
vt 0.000000 0.000000
vt 0.000000 0.000000
vt 0.000000 0.000000
vt 0.000000 0.000000
vt 0.000000 0.000000
vt 0.000000 0.000000
vn 0.0000 0.0000 -1.0000
vn 0.0000 0.0000 1.0000
vn 0.5000 -0.8660 0.0000
vn -1.0000 0.0000 0.0000
vn 1.0000 0.0000 0.0000
vn -0.5000 -0.8660 0.0000
vn -0.5000 0.8660 0.0000
vn 0.5000 0.8660 0.0000
s off
f 1/1/1 5/2/1 3/3/1
f 12/4/2 7/5/2 9/6/2
f 5/2/3 10/7/3 4/8/3
f 3/3/4 8/9/4 2/10/4
f 6/11/5 11/12/5 5/2/5
f 4/8/6 9/6/6 3/3/6
f 2/10/7 7/5/7 1/1/7
f 1/1/8 12/4/8 6/11/8
f 3/3/1 2/10/1 1/1/1
f 1/1/1 6/11/1 5/2/1
f 5/2/1 4/8/1 3/3/1
f 7/5/2 8/9/2 9/6/2
f 9/6/2 10/7/2 11/12/2
f 11/12/2 12/4/2 9/6/2
f 5/2/3 11/12/3 10/7/3
f 3/3/4 9/6/4 8/9/4
f 6/11/5 12/4/5 11/12/5
f 4/8/6 10/7/6 9/6/6
f 2/10/7 8/9/7 7/5/7
f 1/1/8 7/5/8 12/4/8